<svg width="42" height="13" viewBox="0 0 42 13" fill="none" xmlns="http://www.w3.org/2000/svg">
<path d="M-8.63075e-06 5.93499L8.39999 0.934991V2.89499L2.55999 6.43499L8.39999 10.035V11.915L-8.63075e-06 6.85499V5.93499Z" fill="white"/>
<path d="M21.1326 7.00511C21.1326 7.00511 21.045 7.9902 21.8988 7.9902C22.7525 7.9902 23.2341 7.33347 24.0441 7.33347C24.9854 7.33347 25.5984 8.01209 25.5984 9.21609C25.5984 11.033 23.1028 11.2957 23.1028 11.2957C23.1028 11.2957 24.876 10.7922 24.876 9.34744C24.876 8.14343 24.1973 8.16533 24.0441 8.16533C23.3436 8.16533 23.0371 8.7126 22.1177 8.7126C21.3515 8.7126 20.9356 8.29667 20.8261 8.01209C20.7167 8.31856 20.3007 8.7126 19.5346 8.7126C18.6151 8.7126 18.3087 8.16533 17.6082 8.16533C17.4549 8.16533 16.7763 8.16532 16.7763 9.34744C16.7763 10.7922 18.5495 11.2957 18.5495 11.2957C18.5495 11.2957 16.032 11.0112 16.032 9.1942C16.032 7.9902 16.645 7.31158 17.5863 7.31158C18.3962 7.31158 18.8778 7.96831 19.7316 7.96831C20.5634 7.96831 20.4759 6.98321 20.4759 7.00511" fill="white"/>
<path d="M20.8042 12.85C26.0143 12.85 27.6123 9.82904 27.6123 9.82904C27.6123 9.82904 33.501 8.53748 33.501 5.73543C33.501 4.18118 30.1954 4.09361 30.1954 4.09361C30.1954 7.48671 27.3934 7.92453 26.2113 8.55937C25.664 8.84395 25.5983 9.10664 25.5983 9.10664C25.5983 9.10664 25.5983 10.3325 24.2411 10.9455C22.8839 11.5365 20.8261 11.4928 20.8261 11.4928C20.8261 11.4928 18.7684 11.5365 17.3892 10.9455C16.0101 10.3544 16.032 9.10664 16.032 9.10664C16.032 9.10664 15.9663 8.84395 15.4191 8.55937C14.2151 7.92453 11.4349 7.48671 11.4349 4.09361C11.4349 4.09361 8.12936 4.18118 8.12936 5.73543C8.12936 8.53748 14.018 9.82904 14.018 9.82904C14.018 9.82904 15.5723 12.85 20.8042 12.85Z" fill="white"/>
<path d="M7.73534 4.90358C7.75723 4.90358 7.77912 4.92547 7.77912 4.94736C7.77912 4.96925 7.77912 4.96925 7.75723 4.99114C7.45076 5.23194 7.29752 5.60409 7.31941 5.97624C7.31941 7.20213 8.52342 7.90264 9.11447 8.18722C9.13636 8.18722 9.15825 8.23101 9.13636 8.2529C9.13636 8.27479 9.11447 8.27479 9.09258 8.27479C8.28262 8.14344 6.39999 7.66184 6.39999 6.28271C6.42188 5.29762 7.31941 4.99114 7.73534 4.90358Z" fill="white"/>
<path d="M20.0818 0C20.0818 0 20.3445 1.86073 18.6151 1.86073C16.7544 1.86073 16.1634 0.591056 14.434 0.591056C12.5513 0.591056 11.4349 1.9264 11.4349 4.31252C11.3911 5.88867 12.3543 7.33347 13.821 7.94642C13.2081 6.87376 12.8797 5.66976 12.8578 4.42197C12.8578 2.78015 13.6459 2.23288 14.434 2.23288C15.7693 2.23288 16.5355 3.32743 18.3962 3.32743C19.7316 3.32743 20.6291 2.40801 20.8042 1.90451C20.8042 1.88262 20.8261 1.88262 20.848 1.88262L20.8699 1.90451C21.045 2.40801 21.9426 3.32743 23.2779 3.32743C25.1386 3.32743 25.9048 2.23288 27.2402 2.23288C28.0282 2.23288 28.8163 2.78015 28.8163 4.42197C28.7944 5.64787 28.4661 6.87376 27.8531 7.94642C29.3198 7.35536 30.283 5.91056 30.2392 4.33441C30.2392 1.9264 29.1009 0.612947 27.2402 0.612947C25.4889 0.612947 24.8978 1.88262 23.059 1.88262C21.2858 1.88262 21.5485 0 21.5485 0" fill="white"/>
<path d="M25.1824 6.65485C25.1168 6.65485 25.0511 6.58918 25.0511 6.50161C25.073 5.99812 25.2262 4.13739 26.1019 4.13739C26.9775 4.13739 26.9775 5.84489 26.9775 6.23892C26.9775 6.2827 26.9556 6.32649 26.9118 6.34838C26.3864 6.63296 25.7735 6.72052 25.1824 6.65485Z" fill="white"/>
<path d="M23.1028 10.245C23.0809 10.245 23.0809 10.245 23.059 10.2231V10.2012C23.1466 9.96039 23.4968 9.06286 23.9565 9.32555C24.4163 9.58824 23.3655 10.1136 23.1028 10.245Z" fill="white"/>
<path d="M33.8513 4.90358C33.8294 4.90358 33.8075 4.92547 33.8075 4.94736C33.8075 4.96925 33.8075 4.96925 33.8294 4.99114C34.1358 5.23194 34.2891 5.60409 34.2672 5.97624C34.2672 7.20213 33.0632 7.90264 32.4721 8.18722C32.4502 8.18722 32.4283 8.23101 32.4502 8.2529C32.4502 8.27479 32.4721 8.27479 32.494 8.27479C33.304 8.14344 35.1866 7.66184 35.1866 6.28271C35.1866 5.29762 34.2891 4.99114 33.8513 4.90358Z" fill="white"/>
<path d="M18.5057 10.245C18.5276 10.245 18.5276 10.245 18.5495 10.2231V10.2012C18.4619 9.96039 18.1117 9.06286 17.652 9.32555C17.1704 9.58824 18.243 10.1136 18.5057 10.245Z" fill="white"/>
<path d="M16.4042 6.65485C16.4698 6.65485 16.5355 6.58918 16.5355 6.50161C16.5136 5.99812 16.3604 4.13739 15.4847 4.13739C14.6091 4.13739 14.5872 5.84489 14.5872 6.23892C14.5872 6.2827 14.6091 6.32649 14.6529 6.34838C15.2221 6.63296 15.8131 6.72052 16.4042 6.65485Z" fill="white"/>
<path d="M41.5866 6.915L33.1866 11.915V9.955L39.0266 6.415L33.1866 2.815V0.934998L41.5866 5.995V6.915Z" fill="white"/>
</svg>
